<svg xmlns="http://www.w3.org/2000/svg" xmlns:xlink="http://www.w3.org/1999/xlink" width="500" zoomAndPan="magnify" viewBox="0 0 375 374.999991" height="500" preserveAspectRatio="xMidYMid meet" version="1.0"><defs><g/><clipPath id="672fcddf3c"><path d="M 239 133 L 342 133 L 342 236 L 239 236 Z M 239 133 " clip-rule="nonzero"/></clipPath><clipPath id="58a6688020"><path d="M 289.332031 106.089844 L 369.179688 183.195312 L 292.078125 263.042969 L 212.226562 185.941406 Z M 289.332031 106.089844 " clip-rule="nonzero"/></clipPath><clipPath id="a691d71995"><path d="M 289.332031 106.089844 L 369.179688 183.195312 L 292.078125 263.042969 L 212.226562 185.941406 Z M 289.332031 106.089844 " clip-rule="nonzero"/></clipPath><clipPath id="20ffb1c47b"><path d="M 245 139 L 348 139 L 348 242 L 245 242 Z M 245 139 " clip-rule="nonzero"/></clipPath><clipPath id="6a7cdf5df6"><path d="M 294.960938 111.597656 L 374.8125 188.703125 L 297.707031 268.550781 L 217.855469 191.445312 Z M 294.960938 111.597656 " clip-rule="nonzero"/></clipPath><clipPath id="58cf84dd7c"><path d="M 294.960938 111.597656 L 374.8125 188.703125 L 297.707031 268.550781 L 217.855469 191.445312 Z M 294.960938 111.597656 " clip-rule="nonzero"/></clipPath><clipPath id="8181ba282a"><path d="M 242 136 L 345 136 L 345 239 L 242 239 Z M 242 136 " clip-rule="nonzero"/></clipPath><clipPath id="eb9b93ae11"><path d="M 291.777344 108.765625 L 371.628906 185.867188 L 294.523438 265.71875 L 214.671875 188.613281 Z M 291.777344 108.765625 " clip-rule="nonzero"/></clipPath><clipPath id="f73b1598f5"><path d="M 291.777344 108.765625 L 371.628906 185.867188 L 294.523438 265.71875 L 214.671875 188.613281 Z M 291.777344 108.765625 " clip-rule="nonzero"/></clipPath></defs><rect x="-37.5" width="450" fill="#ffffff" y="-37.499999" height="449.999989" fill-opacity="1"/><rect x="-37.5" width="450" fill="#000000" y="-37.499999" height="449.999989" fill-opacity="1"/><g fill="#ffffff" fill-opacity="1"><g transform="translate(34.231936, 199.417195)"><g><path d="M 1.875 -6.984375 C 10.664062 -6.503906 16.617188 -6.265625 19.734375 -6.265625 C 20.472656 -6.265625 21.054688 -6.476562 21.484375 -6.90625 C 21.921875 -7.34375 22.140625 -7.929688 22.140625 -8.671875 L 22.140625 -13 L 11.078125 -13 C 7.703125 -13 5.25 -13.757812 3.71875 -15.28125 C 2.195312 -16.8125 1.4375 -19.257812 1.4375 -22.625 L 1.4375 -24.0625 C 1.4375 -27.4375 2.195312 -29.882812 3.71875 -31.40625 C 5.25 -32.9375 7.703125 -33.703125 11.078125 -33.703125 L 27.96875 -33.703125 L 27.96875 -26.953125 L 13 -26.953125 C 11.070312 -26.953125 10.109375 -25.988281 10.109375 -24.0625 L 10.109375 -23.109375 C 10.109375 -21.179688 11.070312 -20.21875 13 -20.21875 L 21.65625 -20.21875 C 24.800781 -20.21875 27.113281 -19.476562 28.59375 -18 C 30.070312 -16.53125 30.8125 -14.222656 30.8125 -11.078125 L 30.8125 -8.671875 C 30.8125 -5.523438 30.070312 -3.210938 28.59375 -1.734375 C 27.113281 -0.253906 24.800781 0.484375 21.65625 0.484375 C 20.019531 0.484375 18.289062 0.453125 16.46875 0.390625 L 12.03125 0.1875 C 8.757812 0.03125 5.375 -0.191406 1.875 -0.484375 Z M 1.875 -6.984375 "/></g></g></g><g fill="#ffffff" fill-opacity="1"><g transform="translate(66.484819, 199.417195)"><g><path d="M 29.609375 0 L 2.890625 0 L 2.890625 -33.703125 L 29.609375 -33.703125 L 29.609375 -26.953125 L 11.546875 -26.953125 L 11.546875 -20.453125 L 25.75 -20.453125 L 25.75 -13.71875 L 11.546875 -13.71875 L 11.546875 -6.734375 L 29.609375 -6.734375 Z M 29.609375 0 "/></g></g></g><g fill="#ffffff" fill-opacity="1"><g transform="translate(97.052844, 199.417195)"><g><path d="M 24.546875 -33.703125 L 33.21875 -33.703125 L 33.21875 -9.140625 C 33.21875 -5.773438 32.453125 -3.328125 30.921875 -1.796875 C 29.398438 -0.273438 26.957031 0.484375 23.59375 0.484375 L 12.515625 0.484375 C 9.148438 0.484375 6.703125 -0.273438 5.171875 -1.796875 C 3.648438 -3.328125 2.890625 -5.773438 2.890625 -9.140625 L 2.890625 -33.703125 L 11.546875 -33.703125 L 11.546875 -9.140625 C 11.546875 -7.222656 12.507812 -6.265625 14.4375 -6.265625 L 21.65625 -6.265625 C 23.582031 -6.265625 24.546875 -7.222656 24.546875 -9.140625 Z M 24.546875 -33.703125 "/></g></g></g><g fill="#ffffff" fill-opacity="1"><g transform="translate(133.156809, 199.417195)"><g/></g></g><g fill="#ffffff" fill-opacity="1"><g transform="translate(147.598409, 199.417195)"><g><path d="M 2.890625 -33.703125 L 23.109375 -33.703125 C 26.472656 -33.703125 28.914062 -32.9375 30.4375 -31.40625 C 31.96875 -29.882812 32.734375 -27.4375 32.734375 -24.0625 L 32.734375 -19.25 C 32.734375 -15.882812 31.96875 -13.4375 30.4375 -11.90625 C 28.914062 -10.382812 26.472656 -9.625 23.109375 -9.625 L 11.546875 -9.625 L 11.546875 0 L 2.890625 0 Z M 24.0625 -24.0625 C 24.0625 -25.988281 23.101562 -26.953125 21.1875 -26.953125 L 11.546875 -26.953125 L 11.546875 -16.375 L 21.1875 -16.375 C 23.101562 -16.375 24.0625 -17.332031 24.0625 -19.25 Z M 24.0625 -24.0625 "/></g></g></g><g fill="#ffffff" fill-opacity="1"><g transform="translate(181.77685, 199.417195)"><g><path d="M 28.890625 -0.484375 C 21.734375 0.160156 15.796875 0.484375 11.078125 0.484375 C 7.929688 0.484375 5.617188 -0.253906 4.140625 -1.734375 C 2.660156 -3.210938 1.921875 -5.523438 1.921875 -8.671875 L 1.921875 -24.0625 C 1.921875 -27.4375 2.679688 -29.882812 4.203125 -31.40625 C 5.734375 -32.9375 8.179688 -33.703125 11.546875 -33.703125 L 28.890625 -33.703125 L 28.890625 -26.953125 L 13.484375 -26.953125 C 11.554688 -26.953125 10.59375 -25.988281 10.59375 -24.0625 L 10.59375 -8.671875 C 10.59375 -7.929688 10.804688 -7.34375 11.234375 -6.90625 C 11.671875 -6.476562 12.222656 -6.265625 12.890625 -6.265625 C 13.566406 -6.265625 14.304688 -6.269531 15.109375 -6.28125 C 15.910156 -6.300781 16.742188 -6.328125 17.609375 -6.359375 C 18.484375 -6.390625 19.359375 -6.421875 20.234375 -6.453125 C 21.117188 -6.484375 22.257812 -6.546875 23.65625 -6.640625 C 25.050781 -6.734375 26.796875 -6.847656 28.890625 -6.984375 Z M 28.890625 -0.484375 "/></g></g></g><g clip-path="url(#672fcddf3c)"><g clip-path="url(#58a6688020)"><g clip-path="url(#a691d71995)"><path fill="#0bb1d3" d="M 341.972656 211.171875 C 341.980469 210.871094 341.867188 210.558594 341.585938 210.285156 C 332.710938 201.714844 323.835938 193.144531 314.960938 184.574219 C 314.832031 184.449219 314.703125 184.324219 314.570312 184.199219 C 322.835938 175.644531 331.097656 167.085938 339.359375 158.53125 C 339.753906 158.121094 340.148438 157.714844 340.542969 157.304688 C 341.023438 156.808594 341.007812 155.992188 340.511719 155.511719 C 333.0625 148.320312 325.617188 141.128906 318.167969 133.9375 C 317.671875 133.457031 316.855469 133.472656 316.375 133.96875 C 307.820312 142.832031 299.261719 151.691406 290.707031 160.550781 C 290.605469 160.65625 290.507812 160.761719 290.40625 160.863281 C 281.835938 152.589844 273.265625 144.3125 264.695312 136.035156 C 264.261719 135.617188 263.828125 135.199219 263.394531 134.78125 C 262.894531 134.300781 262.078125 134.3125 261.597656 134.8125 C 254.40625 142.257812 247.214844 149.703125 240.027344 157.152344 C 239.542969 157.648438 239.558594 158.464844 240.058594 158.945312 C 248.929688 167.515625 257.808594 176.085938 266.683594 184.65625 C 266.8125 184.78125 266.941406 184.90625 267.070312 185.03125 C 258.78125 193.613281 250.492188 202.199219 242.203125 210.78125 C 241.757812 211.242188 241.316406 211.703125 240.871094 212.164062 C 240.390625 212.660156 240.402344 213.476562 240.902344 213.957031 C 248.347656 221.148438 255.796875 228.339844 263.242188 235.53125 C 263.742188 236.011719 264.554688 235.996094 265.039062 235.5 C 273.621094 226.609375 282.203125 217.722656 290.785156 208.832031 C 290.9375 208.675781 291.085938 208.523438 291.238281 208.367188 C 299.808594 216.640625 308.378906 224.917969 316.949219 233.195312 C 317.382812 233.613281 317.816406 234.03125 318.25 234.449219 C 318.746094 234.929688 319.5625 234.917969 320.042969 234.417969 C 327.234375 226.972656 334.425781 219.527344 341.617188 212.078125 C 341.890625 211.796875 341.992188 211.476562 341.972656 211.171875 " fill-opacity="1" fill-rule="nonzero"/></g></g></g><g fill="#ff00ff" fill-opacity="1"><g transform="translate(39.363107, 221.208771)"><g><path d="M 0.125 0 L 2.40625 -6.75 L 3.703125 -6.75 L 5.984375 0 L 5.109375 0 L 4.53125 -1.765625 L 1.578125 -1.765625 L 1 0 Z M 1.828125 -2.484375 L 4.296875 -2.484375 L 3.15625 -5.953125 L 2.953125 -5.953125 Z M 1.828125 -2.484375 "/></g></g></g><g fill="#ff00ff" fill-opacity="1"><g transform="translate(47.562247, 221.208771)"><g/></g></g><g fill="#ff00ff" fill-opacity="1"><g transform="translate(51.68471, 221.208771)"><g><path d="M 0.75 0 L 0.75 -6.75 L 1.5625 -6.75 L 1.5625 0 Z M 0.75 0 "/></g></g></g><g fill="#ff00ff" fill-opacity="1"><g transform="translate(56.072848, 221.208771)"><g><path d="M 1.609375 0 L 0.640625 -0.96875 L 0.640625 -3.828125 L 1.609375 -4.78125 L 3.875 -4.78125 L 4.828125 -3.828125 L 4.828125 -0.96875 L 3.875 0 Z M 1.953125 -0.640625 L 3.53125 -0.640625 L 4.03125 -1.140625 L 4.015625 -3.640625 L 3.53125 -4.140625 L 1.953125 -4.140625 L 1.453125 -3.640625 L 1.453125 -1.140625 Z M 1.953125 -0.640625 "/></g></g></g><g fill="#ff00ff" fill-opacity="1"><g transform="translate(63.639877, 221.208771)"><g><path d="M 0.859375 -5.3125 L 0.859375 -6.390625 L 1.671875 -6.390625 L 1.671875 -5.3125 Z M -0.359375 1.71875 L -0.359375 1.046875 L 0.4375 1.046875 L 0.859375 0.59375 L 0.859375 -4.78125 L 1.671875 -4.78125 L 1.671875 0.875 L 0.8125 1.71875 Z M -0.359375 1.71875 "/></g></g></g><g fill="#ff00ff" fill-opacity="1"><g transform="translate(68.147112, 221.208771)"><g><path d="M 1.265625 0 L 0.328125 -0.96875 L 0.328125 -2.046875 L 1.265625 -3.015625 L 3.703125 -3.015625 L 3.703125 -3.609375 L 3.21875 -4.109375 L 0.9375 -4.109375 L 0.9375 -4.78125 L 3.5625 -4.78125 L 4.515625 -3.828125 L 4.515625 0 L 3.703125 0 L 3.703125 -0.734375 L 2.96875 0 Z M 1.625 -0.640625 L 2.765625 -0.640625 L 3.703125 -1.578125 L 3.703125 -2.375 L 1.625 -2.375 L 1.125 -1.875 L 1.125 -1.140625 Z M 1.625 -0.640625 "/></g></g></g><g fill="#ff00ff" fill-opacity="1"><g transform="translate(75.457623, 221.208771)"><g/></g></g><g fill="#ff00ff" fill-opacity="1"><g transform="translate(79.580086, 221.208771)"><g><path d="M 0.75 1.71875 L 0.75 -4.78125 L 1.5625 -4.78125 L 1.5625 -4.03125 L 2.28125 -4.78125 L 4.0625 -4.78125 L 5.015625 -3.828125 L 5.015625 -0.96875 L 4.0625 0 L 2.28125 0 L 1.5625 -0.75 L 1.5625 1.71875 Z M 2.5 -0.640625 L 3.703125 -0.640625 L 4.203125 -1.140625 L 4.203125 -3.640625 L 3.703125 -4.140625 L 2.5 -4.140625 L 1.5625 -3.1875 L 1.5625 -1.59375 Z M 2.5 -0.640625 "/></g></g></g><g fill="#ff00ff" fill-opacity="1"><g transform="translate(87.321172, 221.208771)"><g><path d="M 1.265625 0 L 0.328125 -0.96875 L 0.328125 -2.046875 L 1.265625 -3.015625 L 3.703125 -3.015625 L 3.703125 -3.609375 L 3.21875 -4.109375 L 0.9375 -4.109375 L 0.9375 -4.78125 L 3.5625 -4.78125 L 4.515625 -3.828125 L 4.515625 0 L 3.703125 0 L 3.703125 -0.734375 L 2.96875 0 Z M 1.625 -0.640625 L 2.765625 -0.640625 L 3.703125 -1.578125 L 3.703125 -2.375 L 1.625 -2.375 L 1.125 -1.875 L 1.125 -1.140625 Z M 1.625 -0.640625 "/></g></g></g><g fill="#ff00ff" fill-opacity="1"><g transform="translate(94.631682, 221.208771)"><g><path d="M 0.75 0 L 0.75 -4.78125 L 1.5625 -4.78125 L 1.5625 -3.921875 L 2.390625 -4.78125 L 3.609375 -4.78125 L 3.609375 -3.984375 L 2.421875 -3.984375 L 1.5625 -3.078125 L 1.5625 0 Z M 0.75 0 "/></g></g></g><g fill="#ff00ff" fill-opacity="1"><g transform="translate(100.439787, 221.208771)"><g><path d="M 1.265625 0 L 0.328125 -0.96875 L 0.328125 -2.046875 L 1.265625 -3.015625 L 3.703125 -3.015625 L 3.703125 -3.609375 L 3.21875 -4.109375 L 0.9375 -4.109375 L 0.9375 -4.78125 L 3.5625 -4.78125 L 4.515625 -3.828125 L 4.515625 0 L 3.703125 0 L 3.703125 -0.734375 L 2.96875 0 Z M 1.625 -0.640625 L 2.765625 -0.640625 L 3.703125 -1.578125 L 3.703125 -2.375 L 1.625 -2.375 L 1.125 -1.875 L 1.125 -1.140625 Z M 1.625 -0.640625 "/></g></g></g><g fill="#ff00ff" fill-opacity="1"><g transform="translate(107.750298, 221.208771)"><g/></g></g><g fill="#ff00ff" fill-opacity="1"><g transform="translate(111.872761, 221.208771)"><g><path d="M 1.609375 0 L 0.640625 -0.96875 L 0.640625 -3.828125 L 1.609375 -4.78125 L 3.875 -4.78125 L 4.828125 -3.828125 L 4.828125 -0.96875 L 3.875 0 Z M 1.953125 -0.640625 L 3.53125 -0.640625 L 4.03125 -1.140625 L 4.015625 -3.640625 L 3.53125 -4.140625 L 1.953125 -4.140625 L 1.453125 -3.640625 L 1.453125 -1.140625 Z M 1.953125 -0.640625 "/></g></g></g><g fill="#ff00ff" fill-opacity="1"><g transform="translate(119.43979, 221.208771)"><g/></g></g><g fill="#ff00ff" fill-opacity="1"><g transform="translate(123.562253, 221.208771)"><g><path d="M 0.75 0 L 0.75 -0.671875 L 3.28125 -0.671875 L 3.71875 -1.109375 L 3.71875 -1.6875 L 3.265625 -2.140625 L 1.359375 -2.140625 L 0.515625 -2.96875 L 0.515625 -3.9375 L 1.359375 -4.78125 L 4.0625 -4.78125 L 4.0625 -4.109375 L 1.75 -4.109375 L 1.328125 -3.703125 L 1.328125 -3.234375 L 1.765625 -2.796875 L 3.6875 -2.796875 L 4.515625 -1.96875 L 4.515625 -0.84375 L 3.6875 0 Z M 0.75 0 "/></g></g></g><g fill="#ff00ff" fill-opacity="1"><g transform="translate(130.698708, 221.208771)"><g><path d="M 1.609375 0 L 0.640625 -0.96875 L 0.640625 -3.828125 L 1.609375 -4.78125 L 3.734375 -4.78125 L 4.703125 -3.828125 L 4.703125 -2.09375 L 1.453125 -2.09375 L 1.453125 -1.171875 L 1.953125 -0.671875 L 4.609375 -0.671875 L 4.609375 0 Z M 1.453125 -2.734375 L 3.890625 -2.734375 L 3.890625 -3.640625 L 3.390625 -4.140625 L 1.953125 -4.140625 L 1.453125 -3.640625 Z M 1.453125 -2.734375 "/></g></g></g><g fill="#ff00ff" fill-opacity="1"><g transform="translate(138.128316, 221.208771)"><g><path d="M 1.65625 0 L 0.703125 -0.96875 L 0.703125 -4.78125 L 1.515625 -4.78125 L 1.5 -1.15625 L 2 -0.640625 L 3.1875 -0.640625 L 4.125 -1.578125 L 4.125 -4.78125 L 4.9375 -4.78125 L 4.9375 0 L 4.125 0 L 4.125 -0.734375 L 3.390625 0 Z M 1.65625 0 "/></g></g></g><g fill="#ff00ff" fill-opacity="1"><g transform="translate(145.896875, 221.208771)"><g/></g></g><g fill="#ff00ff" fill-opacity="1"><g transform="translate(150.019344, 221.208771)"><g><path d="M 0.796875 0 L 0.796875 -6.75 L 4.359375 -6.75 L 5.3125 -5.78125 L 5.3125 -3.46875 L 4.359375 -2.515625 L 1.625 -2.515625 L 1.625 0 Z M 1.625 -3.25 L 3.984375 -3.25 L 4.484375 -3.75 L 4.484375 -5.5 L 3.984375 -6.015625 L 1.625 -6 Z M 1.625 -3.25 "/></g></g></g><g fill="#ff00ff" fill-opacity="1"><g transform="translate(157.696309, 221.208771)"><g><path d="M 1.578125 0 L 0.625 -0.96875 L 0.625 -5.78125 L 1.578125 -6.75 L 4.640625 -6.75 L 5.5625 -5.8125 L 5.03125 -5.28125 L 4.296875 -6 L 1.953125 -6 L 1.453125 -5.5 L 1.453125 -1.25 L 1.953125 -0.734375 L 4.375 -0.734375 L 5.125 -1.484375 L 5.65625 -0.9375 L 4.703125 0 Z M 1.578125 0 "/></g></g></g><g fill="#ff00ff" fill-opacity="1"><g transform="translate(165.712231, 221.208771)"><g/></g></g><g fill="#ff00ff" fill-opacity="1"><g transform="translate(169.8347, 221.208771)"><g><path d="M 1.015625 1.71875 L 1.015625 1.046875 L 3.59375 1.03125 L 4.109375 0.546875 L 4.109375 -0.75 L 3.359375 0 L 1.609375 0 L 0.640625 -0.96875 L 0.640625 -3.828125 L 1.609375 -4.78125 L 3.359375 -4.78125 L 4.109375 -4.03125 L 4.109375 -4.78125 L 4.90625 -4.78125 L 4.90625 0.75 L 3.953125 1.71875 Z M 3.15625 -0.640625 L 4.109375 -1.59375 L 4.109375 -3.1875 L 3.15625 -4.140625 L 1.953125 -4.140625 L 1.453125 -3.640625 L 1.453125 -1.140625 L 1.953125 -0.640625 Z M 3.15625 -0.640625 "/></g></g></g><g fill="#ff00ff" fill-opacity="1"><g transform="translate(177.57578, 221.208771)"><g><path d="M 1.265625 0 L 0.328125 -0.96875 L 0.328125 -2.046875 L 1.265625 -3.015625 L 3.703125 -3.015625 L 3.703125 -3.609375 L 3.21875 -4.109375 L 0.9375 -4.109375 L 0.9375 -4.78125 L 3.5625 -4.78125 L 4.515625 -3.828125 L 4.515625 0 L 3.703125 0 L 3.703125 -0.734375 L 2.96875 0 Z M 1.625 -0.640625 L 2.765625 -0.640625 L 3.703125 -1.578125 L 3.703125 -2.375 L 1.625 -2.375 L 1.125 -1.875 L 1.125 -1.140625 Z M 1.625 -0.640625 "/></g></g></g><g fill="#ff00ff" fill-opacity="1"><g transform="translate(184.886297, 221.208771)"><g><path d="M 0.75 0 L 0.75 -4.78125 L 1.5625 -4.78125 L 1.5625 -3.921875 L 2.390625 -4.78125 L 4.15625 -4.78125 L 5 -3.9375 L 5.828125 -4.78125 L 7.59375 -4.78125 L 8.546875 -3.828125 L 8.546875 0 L 7.75 0 L 7.75 -3.625 L 7.265625 -4.140625 L 6.03125 -4.140625 L 5.109375 -3.21875 L 5.109375 0 L 4.296875 0 L 4.3125 -3.625 L 3.8125 -4.140625 L 2.59375 -4.140625 L 1.5625 -3.078125 L 1.5625 0 Z M 0.75 0 "/></g></g></g><g fill="#ff00ff" fill-opacity="1"><g transform="translate(196.236832, 221.208771)"><g><path d="M 1.609375 0 L 0.640625 -0.96875 L 0.640625 -3.828125 L 1.609375 -4.78125 L 3.734375 -4.78125 L 4.703125 -3.828125 L 4.703125 -2.09375 L 1.453125 -2.09375 L 1.453125 -1.171875 L 1.953125 -0.671875 L 4.609375 -0.671875 L 4.609375 0 Z M 1.453125 -2.734375 L 3.890625 -2.734375 L 3.890625 -3.640625 L 3.390625 -4.140625 L 1.953125 -4.140625 L 1.453125 -3.640625 Z M 1.453125 -2.734375 "/></g></g></g><g fill="#ff00ff" fill-opacity="1"><g transform="translate(203.666446, 221.208771)"><g><path d="M 0.75 0 L 0.75 -4.78125 L 1.5625 -4.78125 L 1.5625 -3.921875 L 2.390625 -4.78125 L 3.609375 -4.78125 L 3.609375 -3.984375 L 2.421875 -3.984375 L 1.5625 -3.078125 L 1.5625 0 Z M 0.75 0 "/></g></g></g><g fill="#00ffff" fill-opacity="1"><g transform="translate(38.447006, 221.208771)"><g><path d="M 0.125 0 L 2.40625 -6.75 L 3.703125 -6.75 L 5.984375 0 L 5.109375 0 L 4.53125 -1.765625 L 1.578125 -1.765625 L 1 0 Z M 1.828125 -2.484375 L 4.296875 -2.484375 L 3.15625 -5.953125 L 2.953125 -5.953125 Z M 1.828125 -2.484375 "/></g></g></g><g fill="#00ffff" fill-opacity="1"><g transform="translate(46.646147, 221.208771)"><g/></g></g><g fill="#00ffff" fill-opacity="1"><g transform="translate(50.76861, 221.208771)"><g><path d="M 0.75 0 L 0.75 -6.75 L 1.5625 -6.75 L 1.5625 0 Z M 0.75 0 "/></g></g></g><g fill="#00ffff" fill-opacity="1"><g transform="translate(55.156748, 221.208771)"><g><path d="M 1.609375 0 L 0.640625 -0.96875 L 0.640625 -3.828125 L 1.609375 -4.78125 L 3.875 -4.78125 L 4.828125 -3.828125 L 4.828125 -0.96875 L 3.875 0 Z M 1.953125 -0.640625 L 3.53125 -0.640625 L 4.03125 -1.140625 L 4.015625 -3.640625 L 3.53125 -4.140625 L 1.953125 -4.140625 L 1.453125 -3.640625 L 1.453125 -1.140625 Z M 1.953125 -0.640625 "/></g></g></g><g fill="#00ffff" fill-opacity="1"><g transform="translate(62.723777, 221.208771)"><g><path d="M 0.859375 -5.3125 L 0.859375 -6.390625 L 1.671875 -6.390625 L 1.671875 -5.3125 Z M -0.359375 1.71875 L -0.359375 1.046875 L 0.4375 1.046875 L 0.859375 0.59375 L 0.859375 -4.78125 L 1.671875 -4.78125 L 1.671875 0.875 L 0.8125 1.71875 Z M -0.359375 1.71875 "/></g></g></g><g fill="#00ffff" fill-opacity="1"><g transform="translate(67.231012, 221.208771)"><g><path d="M 1.265625 0 L 0.328125 -0.96875 L 0.328125 -2.046875 L 1.265625 -3.015625 L 3.703125 -3.015625 L 3.703125 -3.609375 L 3.21875 -4.109375 L 0.9375 -4.109375 L 0.9375 -4.78125 L 3.5625 -4.78125 L 4.515625 -3.828125 L 4.515625 0 L 3.703125 0 L 3.703125 -0.734375 L 2.96875 0 Z M 1.625 -0.640625 L 2.765625 -0.640625 L 3.703125 -1.578125 L 3.703125 -2.375 L 1.625 -2.375 L 1.125 -1.875 L 1.125 -1.140625 Z M 1.625 -0.640625 "/></g></g></g><g fill="#00ffff" fill-opacity="1"><g transform="translate(74.541523, 221.208771)"><g/></g></g><g fill="#00ffff" fill-opacity="1"><g transform="translate(78.663986, 221.208771)"><g><path d="M 0.75 1.71875 L 0.75 -4.78125 L 1.5625 -4.78125 L 1.5625 -4.03125 L 2.28125 -4.78125 L 4.0625 -4.78125 L 5.015625 -3.828125 L 5.015625 -0.96875 L 4.0625 0 L 2.28125 0 L 1.5625 -0.75 L 1.5625 1.71875 Z M 2.5 -0.640625 L 3.703125 -0.640625 L 4.203125 -1.140625 L 4.203125 -3.640625 L 3.703125 -4.140625 L 2.5 -4.140625 L 1.5625 -3.1875 L 1.5625 -1.59375 Z M 2.5 -0.640625 "/></g></g></g><g fill="#00ffff" fill-opacity="1"><g transform="translate(86.405072, 221.208771)"><g><path d="M 1.265625 0 L 0.328125 -0.96875 L 0.328125 -2.046875 L 1.265625 -3.015625 L 3.703125 -3.015625 L 3.703125 -3.609375 L 3.21875 -4.109375 L 0.9375 -4.109375 L 0.9375 -4.78125 L 3.5625 -4.78125 L 4.515625 -3.828125 L 4.515625 0 L 3.703125 0 L 3.703125 -0.734375 L 2.96875 0 Z M 1.625 -0.640625 L 2.765625 -0.640625 L 3.703125 -1.578125 L 3.703125 -2.375 L 1.625 -2.375 L 1.125 -1.875 L 1.125 -1.140625 Z M 1.625 -0.640625 "/></g></g></g><g fill="#00ffff" fill-opacity="1"><g transform="translate(93.715582, 221.208771)"><g><path d="M 0.75 0 L 0.75 -4.78125 L 1.5625 -4.78125 L 1.5625 -3.921875 L 2.390625 -4.78125 L 3.609375 -4.78125 L 3.609375 -3.984375 L 2.421875 -3.984375 L 1.5625 -3.078125 L 1.5625 0 Z M 0.75 0 "/></g></g></g><g fill="#00ffff" fill-opacity="1"><g transform="translate(99.523687, 221.208771)"><g><path d="M 1.265625 0 L 0.328125 -0.96875 L 0.328125 -2.046875 L 1.265625 -3.015625 L 3.703125 -3.015625 L 3.703125 -3.609375 L 3.21875 -4.109375 L 0.9375 -4.109375 L 0.9375 -4.78125 L 3.5625 -4.78125 L 4.515625 -3.828125 L 4.515625 0 L 3.703125 0 L 3.703125 -0.734375 L 2.96875 0 Z M 1.625 -0.640625 L 2.765625 -0.640625 L 3.703125 -1.578125 L 3.703125 -2.375 L 1.625 -2.375 L 1.125 -1.875 L 1.125 -1.140625 Z M 1.625 -0.640625 "/></g></g></g><g fill="#00ffff" fill-opacity="1"><g transform="translate(106.834198, 221.208771)"><g/></g></g><g fill="#00ffff" fill-opacity="1"><g transform="translate(110.956661, 221.208771)"><g><path d="M 1.609375 0 L 0.640625 -0.96875 L 0.640625 -3.828125 L 1.609375 -4.78125 L 3.875 -4.78125 L 4.828125 -3.828125 L 4.828125 -0.96875 L 3.875 0 Z M 1.953125 -0.640625 L 3.53125 -0.640625 L 4.03125 -1.140625 L 4.015625 -3.640625 L 3.53125 -4.140625 L 1.953125 -4.140625 L 1.453125 -3.640625 L 1.453125 -1.140625 Z M 1.953125 -0.640625 "/></g></g></g><g fill="#00ffff" fill-opacity="1"><g transform="translate(118.52369, 221.208771)"><g/></g></g><g fill="#00ffff" fill-opacity="1"><g transform="translate(122.646153, 221.208771)"><g><path d="M 0.75 0 L 0.75 -0.671875 L 3.28125 -0.671875 L 3.71875 -1.109375 L 3.71875 -1.6875 L 3.265625 -2.140625 L 1.359375 -2.140625 L 0.515625 -2.96875 L 0.515625 -3.9375 L 1.359375 -4.78125 L 4.0625 -4.78125 L 4.0625 -4.109375 L 1.75 -4.109375 L 1.328125 -3.703125 L 1.328125 -3.234375 L 1.765625 -2.796875 L 3.6875 -2.796875 L 4.515625 -1.96875 L 4.515625 -0.84375 L 3.6875 0 Z M 0.75 0 "/></g></g></g><g fill="#00ffff" fill-opacity="1"><g transform="translate(129.782607, 221.208771)"><g><path d="M 1.609375 0 L 0.640625 -0.96875 L 0.640625 -3.828125 L 1.609375 -4.78125 L 3.734375 -4.78125 L 4.703125 -3.828125 L 4.703125 -2.09375 L 1.453125 -2.09375 L 1.453125 -1.171875 L 1.953125 -0.671875 L 4.609375 -0.671875 L 4.609375 0 Z M 1.453125 -2.734375 L 3.890625 -2.734375 L 3.890625 -3.640625 L 3.390625 -4.140625 L 1.953125 -4.140625 L 1.453125 -3.640625 Z M 1.453125 -2.734375 "/></g></g></g><g fill="#00ffff" fill-opacity="1"><g transform="translate(137.212215, 221.208771)"><g><path d="M 1.65625 0 L 0.703125 -0.96875 L 0.703125 -4.78125 L 1.515625 -4.78125 L 1.5 -1.15625 L 2 -0.640625 L 3.1875 -0.640625 L 4.125 -1.578125 L 4.125 -4.78125 L 4.9375 -4.78125 L 4.9375 0 L 4.125 0 L 4.125 -0.734375 L 3.390625 0 Z M 1.65625 0 "/></g></g></g><g fill="#00ffff" fill-opacity="1"><g transform="translate(144.980775, 221.208771)"><g/></g></g><g fill="#00ffff" fill-opacity="1"><g transform="translate(149.103244, 221.208771)"><g><path d="M 0.796875 0 L 0.796875 -6.75 L 4.359375 -6.75 L 5.3125 -5.78125 L 5.3125 -3.46875 L 4.359375 -2.515625 L 1.625 -2.515625 L 1.625 0 Z M 1.625 -3.25 L 3.984375 -3.25 L 4.484375 -3.75 L 4.484375 -5.5 L 3.984375 -6.015625 L 1.625 -6 Z M 1.625 -3.25 "/></g></g></g><g fill="#00ffff" fill-opacity="1"><g transform="translate(156.780209, 221.208771)"><g><path d="M 1.578125 0 L 0.625 -0.96875 L 0.625 -5.78125 L 1.578125 -6.75 L 4.640625 -6.75 L 5.5625 -5.8125 L 5.03125 -5.28125 L 4.296875 -6 L 1.953125 -6 L 1.453125 -5.5 L 1.453125 -1.25 L 1.953125 -0.734375 L 4.375 -0.734375 L 5.125 -1.484375 L 5.65625 -0.9375 L 4.703125 0 Z M 1.578125 0 "/></g></g></g><g fill="#00ffff" fill-opacity="1"><g transform="translate(164.796131, 221.208771)"><g/></g></g><g fill="#00ffff" fill-opacity="1"><g transform="translate(168.9186, 221.208771)"><g><path d="M 1.015625 1.71875 L 1.015625 1.046875 L 3.59375 1.03125 L 4.109375 0.546875 L 4.109375 -0.75 L 3.359375 0 L 1.609375 0 L 0.640625 -0.96875 L 0.640625 -3.828125 L 1.609375 -4.78125 L 3.359375 -4.78125 L 4.109375 -4.03125 L 4.109375 -4.78125 L 4.90625 -4.78125 L 4.90625 0.75 L 3.953125 1.71875 Z M 3.15625 -0.640625 L 4.109375 -1.59375 L 4.109375 -3.1875 L 3.15625 -4.140625 L 1.953125 -4.140625 L 1.453125 -3.640625 L 1.453125 -1.140625 L 1.953125 -0.640625 Z M 3.15625 -0.640625 "/></g></g></g><g fill="#00ffff" fill-opacity="1"><g transform="translate(176.65968, 221.208771)"><g><path d="M 1.265625 0 L 0.328125 -0.96875 L 0.328125 -2.046875 L 1.265625 -3.015625 L 3.703125 -3.015625 L 3.703125 -3.609375 L 3.21875 -4.109375 L 0.9375 -4.109375 L 0.9375 -4.78125 L 3.5625 -4.78125 L 4.515625 -3.828125 L 4.515625 0 L 3.703125 0 L 3.703125 -0.734375 L 2.96875 0 Z M 1.625 -0.640625 L 2.765625 -0.640625 L 3.703125 -1.578125 L 3.703125 -2.375 L 1.625 -2.375 L 1.125 -1.875 L 1.125 -1.140625 Z M 1.625 -0.640625 "/></g></g></g><g fill="#00ffff" fill-opacity="1"><g transform="translate(183.970196, 221.208771)"><g><path d="M 0.75 0 L 0.75 -4.78125 L 1.5625 -4.78125 L 1.5625 -3.921875 L 2.390625 -4.78125 L 4.15625 -4.78125 L 5 -3.9375 L 5.828125 -4.78125 L 7.59375 -4.78125 L 8.546875 -3.828125 L 8.546875 0 L 7.75 0 L 7.75 -3.625 L 7.265625 -4.140625 L 6.03125 -4.140625 L 5.109375 -3.21875 L 5.109375 0 L 4.296875 0 L 4.3125 -3.625 L 3.8125 -4.140625 L 2.59375 -4.140625 L 1.5625 -3.078125 L 1.5625 0 Z M 0.75 0 "/></g></g></g><g fill="#00ffff" fill-opacity="1"><g transform="translate(195.320731, 221.208771)"><g><path d="M 1.609375 0 L 0.640625 -0.96875 L 0.640625 -3.828125 L 1.609375 -4.78125 L 3.734375 -4.78125 L 4.703125 -3.828125 L 4.703125 -2.09375 L 1.453125 -2.09375 L 1.453125 -1.171875 L 1.953125 -0.671875 L 4.609375 -0.671875 L 4.609375 0 Z M 1.453125 -2.734375 L 3.890625 -2.734375 L 3.890625 -3.640625 L 3.390625 -4.140625 L 1.953125 -4.140625 L 1.453125 -3.640625 Z M 1.453125 -2.734375 "/></g></g></g><g fill="#00ffff" fill-opacity="1"><g transform="translate(202.750346, 221.208771)"><g><path d="M 0.75 0 L 0.75 -4.78125 L 1.5625 -4.78125 L 1.5625 -3.921875 L 2.390625 -4.78125 L 3.609375 -4.78125 L 3.609375 -3.984375 L 2.421875 -3.984375 L 1.5625 -3.078125 L 1.5625 0 Z M 0.75 0 "/></g></g></g><g fill="#0bb1d3" fill-opacity="1"><g transform="translate(38.905056, 221.208771)"><g><path d="M 0.125 0 L 2.40625 -6.75 L 3.703125 -6.75 L 5.984375 0 L 5.109375 0 L 4.53125 -1.765625 L 1.578125 -1.765625 L 1 0 Z M 1.828125 -2.484375 L 4.296875 -2.484375 L 3.15625 -5.953125 L 2.953125 -5.953125 Z M 1.828125 -2.484375 "/></g></g></g><g fill="#0bb1d3" fill-opacity="1"><g transform="translate(47.104197, 221.208771)"><g/></g></g><g fill="#0bb1d3" fill-opacity="1"><g transform="translate(51.22666, 221.208771)"><g><path d="M 0.75 0 L 0.75 -6.75 L 1.5625 -6.75 L 1.5625 0 Z M 0.75 0 "/></g></g></g><g fill="#0bb1d3" fill-opacity="1"><g transform="translate(55.614798, 221.208771)"><g><path d="M 1.609375 0 L 0.640625 -0.96875 L 0.640625 -3.828125 L 1.609375 -4.78125 L 3.875 -4.78125 L 4.828125 -3.828125 L 4.828125 -0.96875 L 3.875 0 Z M 1.953125 -0.640625 L 3.53125 -0.640625 L 4.03125 -1.140625 L 4.015625 -3.640625 L 3.53125 -4.140625 L 1.953125 -4.140625 L 1.453125 -3.640625 L 1.453125 -1.140625 Z M 1.953125 -0.640625 "/></g></g></g><g fill="#0bb1d3" fill-opacity="1"><g transform="translate(63.181827, 221.208771)"><g><path d="M 0.859375 -5.3125 L 0.859375 -6.390625 L 1.671875 -6.390625 L 1.671875 -5.3125 Z M -0.359375 1.71875 L -0.359375 1.046875 L 0.4375 1.046875 L 0.859375 0.59375 L 0.859375 -4.78125 L 1.671875 -4.78125 L 1.671875 0.875 L 0.8125 1.71875 Z M -0.359375 1.71875 "/></g></g></g><g fill="#0bb1d3" fill-opacity="1"><g transform="translate(67.689062, 221.208771)"><g><path d="M 1.265625 0 L 0.328125 -0.96875 L 0.328125 -2.046875 L 1.265625 -3.015625 L 3.703125 -3.015625 L 3.703125 -3.609375 L 3.21875 -4.109375 L 0.9375 -4.109375 L 0.9375 -4.78125 L 3.5625 -4.78125 L 4.515625 -3.828125 L 4.515625 0 L 3.703125 0 L 3.703125 -0.734375 L 2.96875 0 Z M 1.625 -0.640625 L 2.765625 -0.640625 L 3.703125 -1.578125 L 3.703125 -2.375 L 1.625 -2.375 L 1.125 -1.875 L 1.125 -1.140625 Z M 1.625 -0.640625 "/></g></g></g><g fill="#0bb1d3" fill-opacity="1"><g transform="translate(79.122036, 221.208771)"><g><path d="M 0.75 1.71875 L 0.75 -4.78125 L 1.5625 -4.78125 L 1.5625 -4.03125 L 2.28125 -4.78125 L 4.0625 -4.78125 L 5.015625 -3.828125 L 5.015625 -0.96875 L 4.0625 0 L 2.28125 0 L 1.5625 -0.75 L 1.5625 1.71875 Z M 2.5 -0.640625 L 3.703125 -0.640625 L 4.203125 -1.140625 L 4.203125 -3.640625 L 3.703125 -4.140625 L 2.5 -4.140625 L 1.5625 -3.1875 L 1.5625 -1.59375 Z M 2.5 -0.640625 "/></g></g></g><g fill="#0bb1d3" fill-opacity="1"><g transform="translate(86.863122, 221.208771)"><g><path d="M 1.265625 0 L 0.328125 -0.96875 L 0.328125 -2.046875 L 1.265625 -3.015625 L 3.703125 -3.015625 L 3.703125 -3.609375 L 3.21875 -4.109375 L 0.9375 -4.109375 L 0.9375 -4.78125 L 3.5625 -4.78125 L 4.515625 -3.828125 L 4.515625 0 L 3.703125 0 L 3.703125 -0.734375 L 2.96875 0 Z M 1.625 -0.640625 L 2.765625 -0.640625 L 3.703125 -1.578125 L 3.703125 -2.375 L 1.625 -2.375 L 1.125 -1.875 L 1.125 -1.140625 Z M 1.625 -0.640625 "/></g></g></g><g fill="#0bb1d3" fill-opacity="1"><g transform="translate(94.173632, 221.208771)"><g><path d="M 0.75 0 L 0.75 -4.78125 L 1.5625 -4.78125 L 1.5625 -3.921875 L 2.390625 -4.78125 L 3.609375 -4.78125 L 3.609375 -3.984375 L 2.421875 -3.984375 L 1.5625 -3.078125 L 1.5625 0 Z M 0.75 0 "/></g></g></g><g fill="#0bb1d3" fill-opacity="1"><g transform="translate(99.981737, 221.208771)"><g><path d="M 1.265625 0 L 0.328125 -0.96875 L 0.328125 -2.046875 L 1.265625 -3.015625 L 3.703125 -3.015625 L 3.703125 -3.609375 L 3.21875 -4.109375 L 0.9375 -4.109375 L 0.9375 -4.78125 L 3.5625 -4.78125 L 4.515625 -3.828125 L 4.515625 0 L 3.703125 0 L 3.703125 -0.734375 L 2.96875 0 Z M 1.625 -0.640625 L 2.765625 -0.640625 L 3.703125 -1.578125 L 3.703125 -2.375 L 1.625 -2.375 L 1.125 -1.875 L 1.125 -1.140625 Z M 1.625 -0.640625 "/></g></g></g><g fill="#0bb1d3" fill-opacity="1"><g transform="translate(107.292248, 221.208771)"><g/></g></g><g fill="#0bb1d3" fill-opacity="1"><g transform="translate(111.414711, 221.208771)"><g><path d="M 1.609375 0 L 0.640625 -0.96875 L 0.640625 -3.828125 L 1.609375 -4.78125 L 3.875 -4.78125 L 4.828125 -3.828125 L 4.828125 -0.96875 L 3.875 0 Z M 1.953125 -0.640625 L 3.53125 -0.640625 L 4.03125 -1.140625 L 4.015625 -3.640625 L 3.53125 -4.140625 L 1.953125 -4.140625 L 1.453125 -3.640625 L 1.453125 -1.140625 Z M 1.953125 -0.640625 "/></g></g></g><g fill="#0bb1d3" fill-opacity="1"><g transform="translate(118.98174, 221.208771)"><g/></g></g><g fill="#0bb1d3" fill-opacity="1"><g transform="translate(123.104203, 221.208771)"><g><path d="M 0.75 0 L 0.75 -0.671875 L 3.28125 -0.671875 L 3.71875 -1.109375 L 3.71875 -1.6875 L 3.265625 -2.140625 L 1.359375 -2.140625 L 0.515625 -2.96875 L 0.515625 -3.9375 L 1.359375 -4.78125 L 4.0625 -4.78125 L 4.0625 -4.109375 L 1.75 -4.109375 L 1.328125 -3.703125 L 1.328125 -3.234375 L 1.765625 -2.796875 L 3.6875 -2.796875 L 4.515625 -1.96875 L 4.515625 -0.84375 L 3.6875 0 Z M 0.75 0 "/></g></g></g><g fill="#0bb1d3" fill-opacity="1"><g transform="translate(130.240657, 221.208771)"><g><path d="M 1.609375 0 L 0.640625 -0.96875 L 0.640625 -3.828125 L 1.609375 -4.78125 L 3.734375 -4.78125 L 4.703125 -3.828125 L 4.703125 -2.09375 L 1.453125 -2.09375 L 1.453125 -1.171875 L 1.953125 -0.671875 L 4.609375 -0.671875 L 4.609375 0 Z M 1.453125 -2.734375 L 3.890625 -2.734375 L 3.890625 -3.640625 L 3.390625 -4.140625 L 1.953125 -4.140625 L 1.453125 -3.640625 Z M 1.453125 -2.734375 "/></g></g></g><g fill="#0bb1d3" fill-opacity="1"><g transform="translate(137.670266, 221.208771)"><g><path d="M 1.65625 0 L 0.703125 -0.96875 L 0.703125 -4.78125 L 1.515625 -4.78125 L 1.5 -1.15625 L 2 -0.640625 L 3.1875 -0.640625 L 4.125 -1.578125 L 4.125 -4.78125 L 4.9375 -4.78125 L 4.9375 0 L 4.125 0 L 4.125 -0.734375 L 3.390625 0 Z M 1.65625 0 "/></g></g></g><g fill="#0bb1d3" fill-opacity="1"><g transform="translate(145.438825, 221.208771)"><g/></g></g><g fill="#0bb1d3" fill-opacity="1"><g transform="translate(149.561294, 221.208771)"><g><path d="M 0.796875 0 L 0.796875 -6.75 L 4.359375 -6.75 L 5.3125 -5.78125 L 5.3125 -3.46875 L 4.359375 -2.515625 L 1.625 -2.515625 L 1.625 0 Z M 1.625 -3.25 L 3.984375 -3.25 L 4.484375 -3.75 L 4.484375 -5.5 L 3.984375 -6.015625 L 1.625 -6 Z M 1.625 -3.25 "/></g></g></g><g fill="#0bb1d3" fill-opacity="1"><g transform="translate(157.238259, 221.208771)"><g><path d="M 1.578125 0 L 0.625 -0.96875 L 0.625 -5.78125 L 1.578125 -6.75 L 4.640625 -6.75 L 5.5625 -5.8125 L 5.03125 -5.28125 L 4.296875 -6 L 1.953125 -6 L 1.453125 -5.5 L 1.453125 -1.25 L 1.953125 -0.734375 L 4.375 -0.734375 L 5.125 -1.484375 L 5.65625 -0.9375 L 4.703125 0 Z M 1.578125 0 "/></g></g></g><g fill="#0bb1d3" fill-opacity="1"><g transform="translate(165.254181, 221.208771)"><g/></g></g><g fill="#0bb1d3" fill-opacity="1"><g transform="translate(169.37665, 221.208771)"><g><path d="M 1.015625 1.71875 L 1.015625 1.046875 L 3.59375 1.03125 L 4.109375 0.546875 L 4.109375 -0.75 L 3.359375 0 L 1.609375 0 L 0.640625 -0.96875 L 0.640625 -3.828125 L 1.609375 -4.78125 L 3.359375 -4.78125 L 4.109375 -4.03125 L 4.109375 -4.78125 L 4.90625 -4.78125 L 4.90625 0.75 L 3.953125 1.71875 Z M 3.15625 -0.640625 L 4.109375 -1.59375 L 4.109375 -3.1875 L 3.15625 -4.140625 L 1.953125 -4.140625 L 1.453125 -3.640625 L 1.453125 -1.140625 L 1.953125 -0.640625 Z M 3.15625 -0.640625 "/></g></g></g><g fill="#0bb1d3" fill-opacity="1"><g transform="translate(177.11773, 221.208771)"><g><path d="M 1.265625 0 L 0.328125 -0.96875 L 0.328125 -2.046875 L 1.265625 -3.015625 L 3.703125 -3.015625 L 3.703125 -3.609375 L 3.21875 -4.109375 L 0.9375 -4.109375 L 0.9375 -4.78125 L 3.5625 -4.78125 L 4.515625 -3.828125 L 4.515625 0 L 3.703125 0 L 3.703125 -0.734375 L 2.96875 0 Z M 1.625 -0.640625 L 2.765625 -0.640625 L 3.703125 -1.578125 L 3.703125 -2.375 L 1.625 -2.375 L 1.125 -1.875 L 1.125 -1.140625 Z M 1.625 -0.640625 "/></g></g></g><g fill="#0bb1d3" fill-opacity="1"><g transform="translate(184.428246, 221.208771)"><g><path d="M 0.75 0 L 0.75 -4.78125 L 1.5625 -4.78125 L 1.5625 -3.921875 L 2.390625 -4.78125 L 4.15625 -4.78125 L 5 -3.9375 L 5.828125 -4.78125 L 7.59375 -4.78125 L 8.546875 -3.828125 L 8.546875 0 L 7.75 0 L 7.75 -3.625 L 7.265625 -4.140625 L 6.03125 -4.140625 L 5.109375 -3.21875 L 5.109375 0 L 4.296875 0 L 4.3125 -3.625 L 3.8125 -4.140625 L 2.59375 -4.140625 L 1.5625 -3.078125 L 1.5625 0 Z M 0.75 0 "/></g></g></g><g fill="#0bb1d3" fill-opacity="1"><g transform="translate(195.778782, 221.208771)"><g><path d="M 1.609375 0 L 0.640625 -0.96875 L 0.640625 -3.828125 L 1.609375 -4.78125 L 3.734375 -4.78125 L 4.703125 -3.828125 L 4.703125 -2.09375 L 1.453125 -2.09375 L 1.453125 -1.171875 L 1.953125 -0.671875 L 4.609375 -0.671875 L 4.609375 0 Z M 1.453125 -2.734375 L 3.890625 -2.734375 L 3.890625 -3.640625 L 3.390625 -4.140625 L 1.953125 -4.140625 L 1.453125 -3.640625 Z M 1.453125 -2.734375 "/></g></g></g><g fill="#0bb1d3" fill-opacity="1"><g transform="translate(203.208396, 221.208771)"><g><path d="M 0.75 0 L 0.75 -4.78125 L 1.5625 -4.78125 L 1.5625 -3.921875 L 2.390625 -4.78125 L 3.609375 -4.78125 L 3.609375 -3.984375 L 2.421875 -3.984375 L 1.5625 -3.078125 L 1.5625 0 Z M 0.75 0 "/></g></g></g><g clip-path="url(#20ffb1c47b)"><g clip-path="url(#6a7cdf5df6)"><g clip-path="url(#58cf84dd7c)"><path fill="#ff00a8" d="M 347.601562 216.679688 C 347.609375 216.378906 347.5 216.066406 347.214844 215.792969 C 338.339844 207.222656 329.464844 198.652344 320.589844 190.082031 C 320.460938 189.957031 320.332031 189.832031 320.203125 189.707031 C 328.464844 181.152344 336.726562 172.59375 344.988281 164.039062 C 345.382812 163.628906 345.777344 163.222656 346.171875 162.8125 C 346.652344 162.316406 346.636719 161.5 346.140625 161.019531 C 338.695312 153.828125 331.246094 146.636719 323.800781 139.445312 C 323.300781 138.964844 322.484375 138.980469 322.003906 139.476562 C 313.449219 148.339844 304.894531 157.199219 296.335938 166.058594 C 296.238281 166.164062 296.136719 166.265625 296.035156 166.371094 C 287.464844 158.09375 278.894531 149.820312 270.324219 141.542969 C 269.890625 141.125 269.457031 140.707031 269.023438 140.285156 C 268.523438 139.804688 267.710938 139.820312 267.226562 140.320312 C 260.039062 147.765625 252.847656 155.210938 245.65625 162.660156 C 245.175781 163.15625 245.191406 163.972656 245.6875 164.453125 C 254.5625 173.023438 263.4375 181.59375 272.3125 190.164062 C 272.441406 190.289062 272.570312 190.414062 272.699219 190.539062 C 264.410156 199.121094 256.121094 207.707031 247.832031 216.289062 C 247.390625 216.75 246.945312 217.210938 246.5 217.667969 C 246.019531 218.167969 246.035156 218.984375 246.53125 219.464844 C 253.980469 226.65625 261.425781 233.847656 268.871094 241.035156 C 269.371094 241.519531 270.1875 241.503906 270.667969 241.003906 C 279.25 232.117188 287.832031 223.230469 296.417969 214.339844 C 296.566406 214.183594 296.714844 214.027344 296.867188 213.875 C 305.4375 222.148438 314.007812 230.425781 322.578125 238.699219 C 323.011719 239.121094 323.445312 239.539062 323.878906 239.957031 C 324.378906 240.4375 325.195312 240.425781 325.675781 239.925781 C 332.867188 232.480469 340.054688 225.03125 347.246094 217.585938 C 347.519531 217.300781 347.621094 216.984375 347.601562 216.679688 " fill-opacity="1" fill-rule="nonzero"/></g></g></g><g clip-path="url(#8181ba282a)"><g clip-path="url(#eb9b93ae11)"><g clip-path="url(#f73b1598f5)"><path fill="#050000" d="M 344.417969 213.847656 C 344.425781 213.542969 344.316406 213.230469 344.03125 212.957031 C 335.15625 204.386719 326.28125 195.816406 317.40625 187.25 C 317.277344 187.125 317.148438 187 317.019531 186.875 C 325.28125 178.316406 333.542969 169.761719 341.804688 161.203125 C 342.199219 160.796875 342.59375 160.386719 342.988281 159.980469 C 343.46875 159.480469 343.453125 158.664062 342.957031 158.183594 C 335.511719 150.996094 328.0625 143.804688 320.617188 136.613281 C 320.117188 136.132812 319.300781 136.144531 318.820312 136.644531 C 310.265625 145.503906 301.710938 154.363281 293.152344 163.226562 C 293.050781 163.328125 292.953125 163.433594 292.851562 163.539062 C 284.28125 155.261719 275.710938 146.984375 267.140625 138.710938 C 266.707031 138.289062 266.273438 137.871094 265.839844 137.453125 C 265.339844 136.972656 264.523438 136.988281 264.042969 137.484375 C 256.851562 144.933594 249.664062 152.378906 242.472656 159.824219 C 241.992188 160.324219 242.003906 161.140625 242.503906 161.621094 C 251.378906 170.1875 260.253906 178.757812 269.128906 187.328125 C 269.257812 187.453125 269.386719 187.578125 269.515625 187.703125 C 261.226562 196.289062 252.9375 204.871094 244.648438 213.457031 C 244.203125 213.917969 243.761719 214.375 243.316406 214.835938 C 242.835938 215.332031 242.851562 216.148438 243.347656 216.628906 C 250.796875 223.820312 258.242188 231.011719 265.6875 238.203125 C 266.1875 238.683594 267.003906 238.667969 267.484375 238.171875 C 276.066406 229.28125 284.648438 220.394531 293.230469 211.507812 C 293.382812 211.351562 293.53125 211.195312 293.683594 211.039062 C 302.253906 219.316406 310.824219 227.589844 319.394531 235.867188 C 319.828125 236.285156 320.261719 236.703125 320.695312 237.125 C 321.195312 237.605469 322.007812 237.589844 322.492188 237.09375 C 329.679688 229.644531 336.871094 222.199219 344.0625 214.753906 C 344.335938 214.46875 344.4375 214.148438 344.417969 213.847656 " fill-opacity="1" fill-rule="nonzero"/></g></g></g></svg>